<?xml version="1.0" standalone="no"?>
<!DOCTYPE svg PUBLIC "-//W3C//DTD SVG 20010904//EN"
 "http://www.w3.org/TR/2001/REC-SVG-20010904/DTD/svg10.dtd">
<svg version="1.0" xmlns="http://www.w3.org/2000/svg"
 width="256.000000pt" height="256.000000pt" viewBox="0 0 256.000000 256.000000"
 preserveAspectRatio="xMidYMid meet">
<metadata>
Created by potrace 1.11, written by Peter Selinger 2001-2013
</metadata>
<g transform="translate(0.000000,256.000000) scale(0.100000,-0.100000)"
fill="#000000" stroke="none">
<path d="M1145 2553 c-536 -64 -976 -448 -1104 -963 -29 -117 -31 -137 -35
-285 -16 -623 422 -1161 1042 -1281 118 -23 348 -23 464 -1 264 52 478 166
668 357 152 151 248 306 314 503 54 162 74 376 54 558 -47 413 -328 803 -713
989 -170 82 -330 120 -525 124 -74 1 -148 1 -165 -1z"/>
</g>
</svg>
