<?xml version="1.0" standalone="no"?>
<!DOCTYPE svg PUBLIC "-//W3C//DTD SVG 20010904//EN"
 "http://www.w3.org/TR/2001/REC-SVG-20010904/DTD/svg10.dtd">
<svg version="1.0" xmlns="http://www.w3.org/2000/svg"
 width="320.000000pt" height="320.000000pt" viewBox="0 0 320.000000 320.000000"
 preserveAspectRatio="xMidYMid meet">
<metadata>
Created by potrace 1.11, written by Peter Selinger 2001-2013
</metadata>
<g transform="translate(0.000000,320.000000) scale(0.100000,-0.100000)"
fill="#000000" stroke="none">
<path d="M1315 2400 c-38 -5 -223 -70 -243 -86 -2 -1 29 -102 68 -224 l72
-222 62 6 c70 7 279 84 273 100 -2 6 -34 107 -72 224 -61 188 -71 212 -89 211
-12 -1 -43 -5 -71 -9z"/>
<path d="M2260 2293 c-248 -25 -411 -161 -469 -390 -26 -103 -26 -178 0 -290
55 -239 166 -396 319 -454 59 -22 210 -27 307 -9 161 29 320 107 411 203 l33
34 -36 117 -36 117 -62 -7 c-59 -7 -65 -10 -122 -68 -55 -56 -164 -126 -196
-126 -35 0 -96 34 -115 63 -11 18 -28 44 -37 58 l-17 26 287 113 c159 62 289
114 290 115 2 1 -10 39 -26 86 -78 228 -156 332 -295 394 -56 25 -123 30 -236
18z m26 -280 c22 -14 91 -131 82 -137 -5 -5 -188 -76 -193 -76 -14 0 -2 120
16 159 34 77 49 85 95 54z"/>
<path d="M740 2043 c-26 -5 -54 -25 -186 -135 l-82 -67 34 -107 c19 -58 32
-110 29 -114 -2 -4 -32 -18 -65 -30 -33 -12 -62 -26 -65 -30 -2 -4 12 -57 33
-118 l36 -112 36 0 c19 1 54 5 78 9 l42 8 70 -216 c42 -129 90 -253 118 -309
46 -89 52 -95 117 -134 l68 -41 153 21 c116 16 165 27 206 47 62 31 108 72
108 95 0 9 -15 61 -34 115 l-33 100 -63 -2 c-49 -1 -67 -6 -86 -24 -45 -42
-63 -10 -159 286 l-72 220 96 38 c53 21 98 40 99 42 2 2 -13 56 -34 119 l-39
116 -60 -6 c-33 -4 -77 -13 -99 -20 -21 -8 -42 -14 -45 -14 -4 0 -27 61 -51
135 l-44 135 -41 -1 c-22 -1 -51 -4 -65 -6z"/>
</g>
</svg>
